<?xml version="1.0" encoding="utf-8"?>
<!-- Generator: Adobe Illustrator 26.0.1, SVG Export Plug-In . SVG Version: 6.00 Build 0)  -->
<svg version="1.1" id="Calque_1" xmlns="http://www.w3.org/2000/svg" xmlns:xlink="http://www.w3.org/1999/xlink" x="0px" y="0px"
	 viewBox="0 0 494.7 227.9" style="enable-background:new 0 0 494.7 227.9;" xml:space="preserve">
<style type="text/css">
	.st0{fill:#FFFFFF;stroke:#000000;stroke-miterlimit:10;}
</style>
<g>
	<g>
		<g>
			<path class="st0" d="M300.1,86.8l-0.3-2.7c-0.9,1.6-3.1,3.1-6.5,3.1c-5.5,0-10.4-4.1-10.4-11c0-6.9,5.1-11,10.6-11
				c5.1,0,8.4,2.9,9.5,6.4l-3.4,1.3c-0.7-2.4-2.8-4.4-6.2-4.4c-3.4,0-7,2.4-7,7.7c0,5.2,3.3,7.8,7,7.8c4.3,0,5.9-2.9,6-4.7h-7v-3.1
				H303v10.7L300.1,86.8L300.1,86.8z"/>
			<path class="st0" d="M315.5,75.7c-0.4-0.1-0.8-0.1-1.1-0.1c-2.7,0-3.9,1.6-3.9,4.3v6.9h-3.5V72.3h3.4v2.3
				c0.7-1.6,2.3-2.5,4.2-2.5c0.4,0,0.8,0.1,0.9,0.1L315.5,75.7L315.5,75.7z"/>
			<path class="st0" d="M321.9,78.5l3.7-0.6c0.8-0.1,1.1-0.5,1.1-1c0-1.2-0.8-2.2-2.7-2.2c-1.8,0-2.8,1.2-3,2.6l-3.2-0.7
				c0.3-2.5,2.5-4.7,6.1-4.7c4.5,0,6.2,2.5,6.2,5.4v7.2c0,1.3,0.1,2.2,0.2,2.3h-3.2c0-0.1-0.1-0.7-0.1-1.8c-0.7,1.1-2.1,2.3-4.5,2.3
				c-3,0-4.9-2.1-4.9-4.4C317.6,80.3,319.5,78.9,321.9,78.5z M326.7,80.8v-0.7l-3.8,0.6c-1.1,0.2-1.9,0.8-1.9,2c0,1,0.7,1.9,2.1,1.9
				C325.1,84.5,326.7,83.6,326.7,80.8z"/>
			<path class="st0" d="M337.8,86.8h-3.5V72.3h3.4v1.9c1-1.7,2.7-2.3,4.3-2.3c3.5,0,5.2,2.6,5.2,5.8v9.2h-3.5v-8.6
				c0-1.8-0.8-3.2-3-3.2c-2,0-3,1.5-3,3.4L337.8,86.8L337.8,86.8z"/>
			<path class="st0" d="M364.8,84.2c0,1.3,0.1,2.4,0.1,2.7h-3.3c-0.1-0.3-0.1-1.3-0.1-1.9c-0.7,1.2-2.2,2.2-4.3,2.2
				c-4.2,0-7-3.3-7-7.7c0-4.2,2.8-7.6,6.9-7.6c2.5,0,3.8,1.2,4.3,2.1v-8.8h3.4V84.2z M357.6,84.1c2.3,0,3.8-1.9,3.8-4.7
				s-1.5-4.5-3.8-4.5s-3.9,1.8-3.9,4.5S355.3,84.1,357.6,84.1z"/>
			<path class="st0" d="M382.2,82.7c-0.8,2.5-3.1,4.6-6.5,4.6c-3.9,0-7.4-2.9-7.4-7.8c0-4.6,3.4-7.6,7.1-7.6c4.5,0,7.1,2.9,7.1,7.5
				c0,0.6-0.1,1-0.1,1.1h-10.6c0.1,2.2,1.8,3.8,4,3.8c2.1,0,3.2-1.1,3.6-2.5L382.2,82.7z M378.9,78c-0.1-1.7-1.2-3.2-3.6-3.2
				c-2.2,0-3.4,1.7-3.5,3.2H378.9z"/>
			<path class="st0" d="M296.8,113c-0.8,2.5-3.1,4.6-6.5,4.6c-3.9,0-7.4-2.9-7.4-7.8c0-4.6,3.4-7.6,7.1-7.6c4.5,0,7.1,2.9,7.1,7.5
				c0,0.6-0.1,1-0.1,1.1h-10.6c0.1,2.2,1.8,3.8,4,3.8c2.1,0,3.2-1.1,3.6-2.5L296.8,113z M293.5,108.3c-0.1-1.7-1.2-3.2-3.6-3.2
				c-2.2,0-3.4,1.7-3.5,3.2H293.5z M291.2,100.8h-2.8l2.6-4.4h4.1L291.2,100.8z"/>
			<path class="st0" d="M302.6,109.9c0,2.9,1.9,4.6,4,4.6c2.3,0,3.3-1.6,3.6-2.7l3,1.1c-0.7,2.3-2.9,4.7-6.7,4.7
				c-4.3,0-7.5-3.3-7.5-7.7c0-4.5,3.2-7.7,7.4-7.7c3.9,0,6,2.4,6.6,4.8l-3.1,1.1c-0.3-1.3-1.3-2.7-3.5-2.7
				C304.5,105.4,302.6,107,302.6,109.9z"/>
			<path class="st0" d="M330.2,109.9c0,4.5-3.2,7.7-7.5,7.7c-4.3,0-7.5-3.2-7.5-7.7c0-4.4,3.2-7.7,7.5-7.7
				C327,102.2,330.2,105.4,330.2,109.9z M326.7,109.9c0-3-1.9-4.6-4-4.6c-2.1,0-4,1.6-4,4.6c0,3,1.9,4.6,4,4.6
				C324.8,114.5,326.7,112.9,326.7,109.9z"/>
			<path class="st0" d="M333.5,117.2V95.6h3.5v21.6H333.5z"/>
			<path class="st0" d="M354.3,113c-0.8,2.5-3.1,4.6-6.5,4.6c-3.9,0-7.4-2.9-7.4-7.8c0-4.6,3.4-7.6,7.1-7.6c4.5,0,7.1,2.9,7.1,7.5
				c0,0.6-0.1,1-0.1,1.1h-10.6c0.1,2.2,1.8,3.8,4,3.8c2.1,0,3.2-1.1,3.6-2.5L354.3,113z M351,108.3c-0.1-1.7-1.2-3.2-3.6-3.2
				c-2.2,0-3.4,1.7-3.5,3.2H351z"/>
			<path class="st0" d="M297.4,144.9c0,1.3,0.1,2.4,0.1,2.6h-3.3c-0.1-0.3-0.1-1.3-0.1-1.9c-0.7,1.2-2.2,2.2-4.3,2.2
				c-4.2,0-7-3.3-7-7.7c0-4.2,2.8-7.6,6.9-7.6c2.5,0,3.8,1.2,4.3,2.1v-8.8h3.4V144.9z M290.2,144.8c2.3,0,3.8-1.9,3.8-4.6
				c0-2.8-1.5-4.5-3.8-4.5s-3.9,1.8-3.9,4.5C286.3,143,287.9,144.8,290.2,144.8z"/>
			<path class="st0" d="M303,126.1c1.4,0,2.5,1.1,2.5,2.8c0,3.9-2.6,5.4-4.4,5.5v-1.6c1.2-0.2,2.3-1.4,2.4-2.7
				c-0.1,0-0.3,0.1-0.6,0.1c-1.2,0-2-0.8-2-2.1C300.8,127.1,301.7,126.1,303,126.1z"/>
			<path class="st0" d="M310.5,125.6c1.2,0,2.3,1,2.3,2.3c0,1.3-1,2.2-2.3,2.2c-1.2,0-2.2-1-2.2-2.2
				C308.2,126.6,309.2,125.6,310.5,125.6z M308.8,147.5V133h3.4v14.5H308.8z"/>
			<path class="st0" d="M320.1,147.5h-3.5V133h3.4v1.9c1-1.7,2.7-2.4,4.3-2.4c3.5,0,5.2,2.6,5.2,5.8v9.2h-3.5v-8.6
				c0-1.8-0.8-3.2-3-3.2c-2,0-3,1.5-3,3.4L320.1,147.5L320.1,147.5z"/>
			<path class="st0" d="M335.9,147.5c0.2,1.8,1.6,3.1,3.6,3.1c2.7,0,4.1-1.4,4.1-4.4v-1.5c-0.6,1.1-2.1,2.1-4.2,2.1
				c-3.9,0-6.7-3-6.7-7.1c0-3.9,2.7-7.1,6.7-7.1c2.3,0,3.7,0.9,4.3,2.1V133h3.3v13.1c0,3.9-2,7.5-7.5,7.5c-3.8,0-6.5-2.4-6.9-5.3
				L335.9,147.5z M343.8,139.8c0-2.5-1.6-4.1-3.7-4.1c-2.2,0-3.8,1.6-3.8,4.1c0,2.5,1.5,4.1,3.8,4.1
				C342.2,143.9,343.8,142.3,343.8,139.8z"/>
			<path class="st0" d="M364.2,143.4c-0.8,2.5-3.1,4.6-6.5,4.6c-3.9,0-7.4-2.9-7.4-7.8c0-4.6,3.4-7.6,7.1-7.6c4.5,0,7.1,2.9,7.1,7.5
				c0,0.6-0.1,1-0.1,1.1h-10.6c0.1,2.2,1.8,3.8,4,3.8c2.1,0,3.2-1.1,3.6-2.5L364.2,143.4z M360.9,138.7c-0.1-1.7-1.2-3.2-3.6-3.2
				c-2.2,0-3.4,1.7-3.5,3.2H360.9z M358.5,131.2h-2.8l2.6-4.4h4.1L358.5,131.2z"/>
			<path class="st0" d="M371.1,147.5h-3.5V133h3.4v1.9c1-1.7,2.7-2.4,4.3-2.4c3.5,0,5.2,2.6,5.2,5.8v9.2h-3.5v-8.6
				c0-1.8-0.8-3.2-3-3.2c-2,0-3,1.5-3,3.4L371.1,147.5L371.1,147.5z"/>
			<path class="st0" d="M386.5,125.6c1.2,0,2.3,1,2.3,2.3c0,1.3-1,2.2-2.3,2.2c-1.2,0-2.2-1-2.2-2.2
				C384.2,126.6,385.2,125.6,386.5,125.6z M384.8,147.5V133h3.4v14.5H384.8z"/>
			<path class="st0" d="M405.5,143.4c-0.8,2.5-3.1,4.6-6.5,4.6c-3.9,0-7.4-2.9-7.4-7.8c0-4.6,3.4-7.6,7.1-7.6c4.5,0,7.1,2.9,7.1,7.5
				c0,0.6-0.1,1-0.1,1.1H395c0.1,2.2,1.8,3.8,4,3.8c2.1,0,3.2-1.1,3.6-2.5L405.5,143.4z M402.2,138.7c-0.1-1.7-1.2-3.2-3.6-3.2
				c-2.2,0-3.4,1.7-3.5,3.2H402.2z"/>
			<path class="st0" d="M414,147.9c-3.5,0-5.5-2.6-5.5-5.8V133h3.5v8.5c0,1.8,0.8,3.3,2.9,3.3c2,0,3-1.3,3-3.2V133h3.5v11.9
				c0,1.2,0.1,2.1,0.1,2.6h-3.3c-0.1-0.3-0.1-1-0.1-1.6C417.4,147.2,415.7,147.9,414,147.9z"/>
			<path class="st0" d="M434.4,136.4c-0.4-0.1-0.8-0.1-1.1-0.1c-2.7,0-3.9,1.6-3.9,4.3v6.9h-3.5V133h3.4v2.3
				c0.7-1.6,2.3-2.5,4.2-2.5c0.4,0,0.8,0.1,0.9,0.1L434.4,136.4L434.4,136.4z"/>
			<path class="st0" d="M439,142.7c0.1,1.3,1.1,2.5,3,2.5c1.4,0,2.2-0.8,2.2-1.7c0-0.8-0.5-1.4-1.7-1.6l-2.1-0.5
				c-2.6-0.6-3.9-2.2-3.9-4.2c0-2.5,2.3-4.7,5.3-4.7c4,0,5.4,2.6,5.6,4.1l-2.9,0.8c-0.1-0.8-0.7-2.2-2.7-2.2c-1.2,0-2.1,0.8-2.1,1.7
				c0,0.8,0.6,1.3,1.5,1.5l2.2,0.4c2.7,0.6,4.2,2.3,4.2,4.4c0,2.2-1.8,4.6-5.5,4.6c-4.2,0-5.8-2.7-6-4.4L439,142.7z"/>
		</g>
		<path class="st0" d="M183.5,53.1c0-1.5,0-2.7,0.1-3.5c0-0.8,0.2-1.3,0.6-1.7c0.4-0.3,1-0.5,1.9-0.6c0.9,0,2.1,0,3.8,0s2.9,0,3.8,0
			c0.9,0,1.5,0.2,1.9,0.6c0.4,0.3,0.6,0.9,0.6,1.7c0,0.8,0.1,1.9,0.1,3.5c0,1.5,0,2.7-0.1,3.5c0,0.8-0.2,1.3-0.6,1.7
			c-0.4,0.3-1,0.5-1.9,0.6c-0.9,0-2.1,0-3.8,0s-2.9,0-3.8,0c-0.9,0-1.5-0.2-1.9-0.6c-0.4-0.3-0.6-0.9-0.6-1.7
			C183.6,55.8,183.5,54.7,183.5,53.1z M196.3,65v82.5h-12.8V65H196.3z"/>
		<path class="st0" d="M255.8,80.3c-1.1-3.2-2.5-5.8-4.1-7.9c-1.7-2.1-3.5-3.7-5.4-4.8s-3.8-1.9-5.6-2.5c-1.7-0.5-3.2-0.8-4.5-0.9
			s-2-0.1-2.3-0.1c-0.2,0-1,0-2.2,0.1c-1.3,0.1-2.8,0.4-4.6,0.9s-3.6,1.3-5.6,2.5c-1.9,1.1-3.8,2.7-5.4,4.8s-3.1,4.7-4.1,7.9
			s-1.6,7.1-1.6,11.8v55.5h12.8v-20.6l21.6-12.7v33.3h12.8V92C257.5,87.4,256.9,83.4,255.8,80.3z M223.1,112.1V92
			c0-1.5,0.1-3.1,0.4-4.7c0.3-1.6,0.8-3.1,1.6-4.4s1.9-2.4,3.2-3.3c1.4-0.9,3.2-1.3,5.6-1.3c2.3,0,4.1,0.4,5.6,1.3
			c1.4,0.9,2.5,2,3.2,3.3c0.8,1.3,1.3,2.8,1.6,4.4c0.3,1.6,0.4,3.2,0.4,4.7v7.3L223.1,112.1z"/>
		<g>
			<path class="st0" d="M72.1,65v70.3c0,1.9-0.2,3.7-0.6,5.1c-0.4,1.5-1,2.8-1.7,3.9c-0.7,1.1-1.5,2-2.3,2.8
				c-0.9,0.7-1.8,1.3-2.7,1.8c-2.2,1.2-4.6,1.8-7.2,1.9H47.1V138h5.7c1.6,0,2.9-0.2,3.8-0.7c0.9-0.5,1.6-1,2-1.6
				c0.5-0.7,0.8-1.5,0.8-2.3V65H72.1z M59.4,53.3c0-1.5,0-2.7,0-3.5c0-0.8,0.2-1.3,0.6-1.7c0.4-0.3,1-0.5,1.9-0.6c0.9,0,2.1,0,3.8,0
				c1.7,0,2.9,0,3.8,0c0.9,0,1.5,0.2,1.9,0.6c0.4,0.3,0.6,0.9,0.6,1.7c0,0.8,0.1,1.9,0.1,3.5c0,1.5,0,2.7-0.1,3.5
				c0,0.8-0.2,1.3-0.6,1.7c-0.4,0.3-1,0.5-1.9,0.6c-0.9,0-2.2,0-3.8,0s-3,0-3.8,0c-0.9,0-1.5-0.2-1.9-0.6c-0.4-0.3-0.6-0.9-0.6-1.7
				C59.4,56,59.4,54.8,59.4,53.3z"/>
		</g>
		<path class="st0" d="M169.5,110.6c0-0.3,0-0.6,0-0.9V65c-4.3,0-8.5,0-12.8,0l-0.1,49.4l-15.3-26.2l0,0l0,0l-9.5-16.3c0,0,0,0,0,0
			c-2.2-3.9-6.4-6.6-11.3-6.6v38.2c0,0.3,0,0.6,0,0.9v16.8c0,1.5-0.1,3.1-0.4,4.7c-0.3,1.6-0.8,3.1-1.6,4.4
			c-0.8,1.3-1.8,2.4-3.2,3.3c-1.4,0.9-3.2,1.3-5.6,1.3c-2.3,0-4.2-0.4-5.6-1.3s-2.5-2-3.2-3.3c-0.8-1.3-1.3-2.8-1.6-4.4
			c-0.3-1.6-0.4-3.2-0.4-4.7V65H86.2v56.2c0,4.7,0.5,8.6,1.6,11.8s2.5,5.8,4.1,7.9s3.5,3.7,5.4,4.8c1.9,1.1,3.8,1.9,5.6,2.5
			c1.7,0.5,3.2,0.8,4.5,0.9c1.3,0.1,2,0.1,2.3,0.1c0.2,0,1,0,2.2-0.1c1.3-0.1,2.8-0.4,4.6-0.9c1.7-0.5,3.6-1.3,5.6-2.5
			c1.9-1.1,3.8-2.7,5.4-4.8s3-4.7,4.1-7.9s1.6-7.1,1.6-11.8v-4.7l0.1-16.9l24.7,42.7c1.5,2.6,3.8,4.5,6.4,5.5
			c1.6,0.7,3.3,1.1,5.2,1.1L169.5,110.6L169.5,110.6z"/>
	</g>
</g>
<g>
	<path class="st0" d="M88.1,180.5v-6.8h-7.1v6.8h-3.2v-16.3h3.2v6.6h7.1v-6.6h3.2v16.3H88.1z"/>
	<path class="st0" d="M96.4,180.5v-16.3h10.2v3h-7.1v3.7h6.4v2.8h-6.4v3.8h7.1v3H96.4z"/>
	<path class="st0" d="M111.2,180.5v-16.3h3.2v16.3H111.2z"/>
	<path class="st0" d="M126.6,180.5v-16.3h3.2v16.3H126.6z"/>
	<path class="st0" d="M143.1,168.9c-0.2-0.9-0.9-2.3-3-2.3c-1.5,0-2.6,1-2.6,2.1c0,0.9,0.6,1.6,1.8,1.8l2.3,0.4
		c3,0.6,4.6,2.5,4.6,4.8c0,2.5-2.1,5.1-5.9,5.1c-4.3,0-6.2-2.8-6.5-5.1l2.9-0.8c0.1,1.6,1.3,3.1,3.6,3.1c1.7,0,2.6-0.9,2.6-2
		c0-0.9-0.7-1.7-2-1.9l-2.3-0.5c-2.6-0.5-4.3-2.2-4.3-4.7c0-2.9,2.6-5.1,5.7-5.1c4,0,5.5,2.4,5.9,4.2L143.1,168.9z"/>
	<path class="st0" d="M150.2,180.5v-16.3h10.2v3h-7.1v3.7h6.4v2.8h-6.4v3.8h7.1v3H150.2z"/>
	<path class="st0" d="M175.6,180.5l-7.4-11.6v11.6H165v-16.3h4l6.8,10.8v-10.8h3.2v16.3H175.6z"/>
	<path class="st0" d="M191.2,180.5v-16.3h3.2v16.3H191.2z"/>
	<path class="st0" d="M207.6,168.9c-0.2-0.9-0.9-2.3-3-2.3c-1.5,0-2.6,1-2.6,2.1c0,0.9,0.6,1.6,1.8,1.8l2.3,0.4
		c3,0.6,4.6,2.5,4.6,4.8c0,2.5-2.1,5.1-5.9,5.1c-4.3,0-6.2-2.8-6.5-5.1l2.9-0.8c0.1,1.6,1.3,3.1,3.6,3.1c1.7,0,2.6-0.9,2.6-2
		c0-0.9-0.7-1.7-2-1.9l-2.3-0.5c-2.6-0.5-4.3-2.2-4.3-4.7c0-2.9,2.6-5.1,5.7-5.1c4,0,5.5,2.4,5.9,4.2L207.6,168.9z"/>
	<path class="st0" d="M224.2,176.8h-6.6l-1.4,3.7h-3.4l6.3-16.3h3.7l6.2,16.3h-3.5L224.2,176.8z M218.6,173.9h4.5l-2.3-6.2
		L218.6,173.9z"/>
</g>
<path class="st0" d="M119,172.7c0-0.4,0-0.6,0-0.8c0-0.2,0.1-0.3,0.1-0.4c0.1-0.1,0.2-0.1,0.4-0.1c0.2,0,0.5,0,0.9,0
	c0.4,0,0.7,0,0.9,0s0.3,0.1,0.4,0.1c0.1,0.1,0.1,0.2,0.1,0.4c0,0.2,0,0.4,0,0.8c0,0.4,0,0.6,0,0.8c0,0.2-0.1,0.3-0.1,0.4
	c-0.1,0.1-0.2,0.1-0.4,0.1c-0.2,0-0.5,0-0.9,0s-0.7,0-0.9,0s-0.3-0.1-0.4-0.1c-0.1-0.1-0.1-0.2-0.1-0.4C119,173.3,119,173,119,172.7
	z"/>
<path class="st0" d="M183.6,172.7c0-0.4,0-0.6,0-0.8c0-0.2,0.1-0.3,0.1-0.4c0.1-0.1,0.2-0.1,0.4-0.1c0.2,0,0.5,0,0.9,0
	c0.4,0,0.7,0,0.9,0c0.2,0,0.3,0.1,0.4,0.1s0.1,0.2,0.1,0.4c0,0.2,0,0.4,0,0.8c0,0.4,0,0.6,0,0.8c0,0.2-0.1,0.3-0.1,0.4
	c-0.1,0.1-0.2,0.1-0.4,0.1c-0.2,0-0.5,0-0.9,0s-0.7,0-0.9,0c-0.2,0-0.4-0.1-0.4-0.1c-0.1-0.1-0.1-0.2-0.1-0.4S183.6,173,183.6,172.7
	z"/>
</svg>
